<svg height="80" viewBox="0 0 80 80" width="80" xmlns="http://www.w3.org/2000/svg"><g fill="none"><path d="m0 0h80v80h-80z"/><path d="m75 59.716c0 2.343-.67 4.617-1.912 6.583-1.237 1.966-3.072 3.638-5.386 4.655-1.536.675-3.277 1.05-5.107 1.046h-45.189c-1.829.005-3.571-.371-5.107-1.05-1.541-.675-2.872-1.643-3.952-2.795-2.162-2.308-3.341-5.32-3.345-8.439-.005-1.687.352-3.408 1.115-5.032.758-1.62 1.932-3.123 3.468-4.352l24.611-19.735-1.154-.925c-1.507-1.204-2.661-2.704-3.424-4.328-.767-1.629-1.145-3.383-1.145-5.132 0-1.75.376-3.504 1.14-5.132.758-1.629 1.917-3.133 3.429-4.342 2.27-1.821 5.058-2.737 7.822-2.737 2.769 0 5.552.92 7.822 2.742l3.639 2.925-4.633 5.606-3.644-2.925c-.934-.747-2.05-1.118-3.185-1.118-1.14 0-2.26.371-3.194 1.118-.631.511-1.086 1.104-1.394 1.764-.308.656-.464 1.379-.464 2.101 0 .719.156 1.436.464 2.092s.763 1.253 1.4 1.764l4.647 3.726 28.097 22.537c1.536 1.229 2.705 2.733 3.468 4.352.763 1.624 1.115 3.345 1.115 5.032zm-7.704 1.898c.244-.607.367-1.258.367-1.899 0-.689-.142-1.364-.435-1.99-.299-.632-.743-1.224-1.444-1.788l-25.784-20.679-25.784 20.681c-.699.563-1.145 1.156-1.444 1.788-.294.626-.435 1.301-.435 1.99-.005.959.284 1.947.807 2.767.519.829 1.248 1.475 2.143 1.87.597.26 1.281.42 2.118.42h45.189c.626 0 1.165-.091 1.653-.246.484-.154.915-.376 1.301-.65.779-.551 1.39-1.351 1.748-2.263z" fill="#000"/></g></svg>