<svg height="80" viewBox="0 0 80 80" width="80" xmlns="http://www.w3.org/2000/svg"><path d="m64.8857143 15.1142857c-1.4857143-1.4857143-3.7142857-1.4857143-5.2 0l-19.6857143 19.6857143-19.6857143-19.6857143c-1.4857143-1.4857143-3.7142857-1.4857143-5.2 0s-1.4857143 3.7142857 0 5.2l19.6857143 19.6857143-19.6857143 19.6857143c-1.4857143 1.4857143-1.4857143 3.7142857 0 5.2.7428572.7428571 1.4857143 1.1142857 2.6 1.1142857s1.8571429-.3714286 2.6-1.1142857l19.6857143-19.6857143 19.6857143 19.6857143c.7428571.7428571 1.8571428 1.1142857 2.6 1.1142857.7428571 0 1.8571428-.3714286 2.6-1.1142857 1.4857143-1.4857143 1.4857143-3.7142857 0-5.2l-19.6857143-19.6857143 19.6857143-19.6857143c1.4857143-1.4857143 1.4857143-3.7142857 0-5.2z"/></svg>