<svg height="75" viewBox="0 0 393 75" width="393" xmlns="http://www.w3.org/2000/svg"><path d="m66.4 23.4h14.2l-14.9 49.6h-17.5l-7.2-23.9-.7-7.1-.8 7.1-7.2 23.9h-17.4l-14.9-49.6h14.2l10.3 35.9 10-35.9h11.5l10 36.1zm56.939-1.4c3.267 0 6.317.683 9.15 2.05s5.283 3.233 7.35 5.6 3.683 5.133 4.85 8.3 1.75 6.55 1.75 10.15v24.9h-13.5v-9.1c0-2.533.017-5.15.05-7.85s.05-5.017.05-6.95c0-1.867-.3-3.7-.9-5.5s-1.433-3.383-2.5-4.75-2.317-2.467-3.75-3.3-2.95-1.25-4.55-1.25c-1.533 0-3 .283-4.4.85s-2.633 1.4-3.7 2.5-1.917 2.483-2.55 4.15-.95 3.633-.95 5.9v25.3h-13.9v-73h13.9v27.2c1.733-1.667 3.717-2.95 5.95-3.85s4.783-1.35 7.65-1.35zm61.139 0c3.533 0 6.867.683 10 2.05s5.867 3.233 8.2 5.6 4.183 5.133 5.55 8.3 2.05 6.55 2.05 10.15-.683 6.983-2.05 10.15-3.217 5.933-5.55 8.3-5.067 4.233-8.2 5.6-6.467 2.05-10 2.05c-3.6 0-6.967-.683-10.1-2.05s-5.867-3.233-8.2-5.6-4.183-5.133-5.55-8.3-2.05-6.55-2.05-10.15.683-6.983 2.05-10.15 3.217-5.933 5.55-8.3 5.067-4.233 8.2-5.6 6.5-2.05 10.1-2.05zm0 40.1c1.667 0 3.217-.333 4.65-1s2.7-1.583 3.8-2.75 1.967-2.567 2.6-4.2.95-3.45.95-5.45-.317-3.867-.95-5.6-1.5-3.25-2.6-4.55-2.367-2.333-3.8-3.1-2.983-1.15-4.65-1.15-3.233.383-4.7 1.15-2.75 1.8-3.85 3.1-1.967 2.817-2.6 4.55-.95 3.6-.95 5.6.317 3.817.95 5.45 1.5 3.033 2.6 4.2 2.383 2.083 3.85 2.75 3.033 1 4.7 1zm64.839-40.1c3.533 0 6.867.683 10 2.05s5.867 3.233 8.2 5.6 4.183 5.133 5.55 8.3 2.05 6.55 2.05 10.15-.683 6.983-2.05 10.15-3.217 5.933-5.55 8.3-5.067 4.233-8.2 5.6-6.467 2.05-10 2.05c-3.6 0-6.967-.683-10.1-2.05s-5.867-3.233-8.2-5.6-4.183-5.133-5.55-8.3-2.05-6.55-2.05-10.15.683-6.983 2.05-10.15 3.217-5.933 5.55-8.3 5.067-4.233 8.2-5.6 6.5-2.05 10.1-2.05zm0 40.1c1.667 0 3.217-.333 4.65-1s2.7-1.583 3.8-2.75 1.967-2.567 2.6-4.2.95-3.45.95-5.45-.317-3.867-.95-5.6-1.5-3.25-2.6-4.55-2.367-2.333-3.8-3.1-2.983-1.15-4.65-1.15-3.233.383-4.7 1.15-2.75 1.8-3.85 3.1-1.967 2.817-2.6 4.55-.95 3.6-.95 5.6.317 3.817.95 5.45 1.5 3.033 2.6 4.2 2.383 2.083 3.85 2.75 3.033 1 4.7 1zm71.939-15.1c3.667 2.6 5.5 6.3 5.5 11.1 0 2.2-.517 4.267-1.55 6.2s-2.45 3.633-4.25 5.1-3.9 2.617-6.3 3.45-4.967 1.25-7.7 1.25c-2.067 0-4.083-.267-6.05-.8s-3.783-1.267-5.45-2.2-3.117-2.05-4.35-3.35-2.15-2.75-2.75-4.35c1.533-.733 3.233-1.55 5.1-2.45s3.5-1.717 4.9-2.45c.6 1 1.533 1.917 2.8 2.75s3 1.25 5.2 1.25c2.267 0 3.933-.533 5-1.6s1.6-2.067 1.6-3c0-.667-.367-1.283-1.1-1.85s-1.567-1.017-2.5-1.35c-1.333-.533-2.433-.817-3.3-.85s-1.867-.217-3-.55c-3.6-.867-6.35-2.017-8.25-3.45s-3.283-2.883-4.15-4.35-1.35-2.867-1.45-4.2-.15-2.4-.15-3.2c0-2.133.467-4.167 1.4-6.1s2.217-3.617 3.85-5.05 3.533-2.583 5.7-3.45 4.483-1.3 6.95-1.3c2.067 0 4.033.3 5.9.9s3.567 1.433 5.1 2.5 2.85 2.333 3.95 3.8 1.917 3.1 2.45 4.9l-10.7 3.6c-.4-1.2-1.217-2.167-2.45-2.9s-2.55-1.1-3.95-1.1-2.533.467-3.4 1.4-1.3 1.867-1.3 2.8c0 1.133.417 2.017 1.25 2.65s1.75 1.083 2.75 1.35c.733.133 1.45.25 2.15.35s1.383.217 2.05.35c2.333.533 4.35 1.133 6.05 1.8s3.183 1.467 4.45 2.4zm47.839-25c3.267 0 6.317.683 9.15 2.05s5.283 3.233 7.35 5.6 3.683 5.133 4.85 8.3 1.75 6.55 1.75 10.15v24.9h-13.5v-9.1c0-2.533.017-5.15.05-7.85s.05-5.017.05-6.95c0-1.867-.3-3.7-.9-5.5s-1.433-3.383-2.5-4.75-2.317-2.467-3.75-3.3-2.95-1.25-4.55-1.25c-1.533 0-3 .283-4.4.85s-2.633 1.4-3.7 2.5-1.917 2.483-2.55 4.15-.95 3.633-.95 5.9v25.3h-13.9v-73h13.9v27.2c1.733-1.667 3.717-2.95 5.95-3.85s4.783-1.35 7.65-1.35z"/></svg>